<svg xmlns="http://www.w3.org/2000/svg" viewBox="0 0 873.47 205.23"><defs><style>.cls-1{fill:#5b7691;}.cls-2{fill:#293046;fill-rule:evenodd;}.cls-3{fill:none;}.cls-4{fill:#c5ccd2;}</style></defs><g id="Layer_2" data-name="Layer 2"><g id="Layer_1-2" data-name="Layer 1"><path class="cls-1" d="M525.17,16.49a15.81,15.81,0,0,1-3.6,9.75l-.08.08a16.78,16.78,0,0,1-13.28,6l-.87,0A14.55,14.55,0,0,1,502.15,31a22,22,0,0,1-4.7-3.05,20,20,0,0,0-2.18-1.71c-.32-.18-.61-.31-.61-.31-3.12-1.39-9.11-1.85-19.06-1-17,1.49-63.71,9.9-97.88,16.41-13.24,2.54-35.14,6.94-57.8,11.89-13,2.84-24.95,5.77-36.71,8.45C273.09,64.05,273.08,64,263,66.38c-5.44,1.29-5.27,1.05-10.74,2.2-14,3-21,4.65-25.36,5.63-8.09,1.81-11.35,3-17.37,4.43-.08,0,27.35-7.25,28.22-7.47,12.66-3.35,7.18-2.06,19.91-5.22s25.55-6.59,38.39-9.63c6.05-1.44,12.12-2.78,18.16-4.23q18.3-4.19,36.65-8.09Q368.9,40.16,387,36.58C426,28.87,462.28,22,482.33,17a31.31,31.31,0,0,0,5.92-2.51,16.75,16.75,0,0,0,4.41-3.58c1-1.25,1.6-2.89,2.55-4.22a15,15,0,0,1,6.45-5.26L502.82,1a16.93,16.93,0,0,1,6-1A16.73,16.73,0,0,1,521,5.44a15.68,15.68,0,0,1,4.22,11"/><path class="cls-2" d="M629.44,148.17V124.82c0,7.85,0,15.7,0,23.35"/><path class="cls-2" d="M467.08,164.69v.74a2.59,2.59,0,0,1-2.49,2.65H405.05a10,10,0,0,1-2.3-.25h0c-3.65-.82-6.43-3.6-8-7.86a27.93,27.93,0,0,1-1.58-9.75V106a2.58,2.58,0,0,1,2.47-2.66h.69a2.58,2.58,0,0,1,2.46,2.66v40.31c0,10.3,1.23,15.71,8.2,15.74h57.65a2.09,2.09,0,0,1,.7.11s0,0,0,0a1.49,1.49,0,0,1,1.27,1,.05.05,0,0,0,0,.05,2.79,2.79,0,0,1,.45,1.51"/><path class="cls-2" d="M543.81,164l-1-2.12v0l-23.93-50.66-.07-.12a20.61,20.61,0,0,0-2.75-4.15c-2-2.31-4.21-3.57-6.4-3.57s-4.44,1.32-6.3,3.8h0a19.2,19.2,0,0,0-1.81,3c-.1.21-.21.44-.33.65l-24.45,51.76L476,164a2.76,2.76,0,0,0,1.08,3.58l.61.33a2.39,2.39,0,0,0,3.32-1.17l12.74-27,.18-.38h31.91l.18.36,12.74,27a2.46,2.46,0,0,0,1.87,1.44H541a2.39,2.39,0,0,0,1.17-.29l.61-.33a2.78,2.78,0,0,0,1.08-3.58m-47-30.67L497,133l9.32-19.76c1-1.58,2.09-2.63,3.56-2.63s2.8,1.38,3.91,3.26L522.85,133l.16.34Z"/><path class="cls-2" d="M697.2,106a2.58,2.58,0,0,1,2.47-2.66h.68a2.59,2.59,0,0,1,2.48,2.66v48.77c0,5.49.36,8.93-2.3,11.79-1.25,1.36-2.95,1.62-4.91,1.62-3.13,0-5.72-3.61-7.78-5.71q-3.68-3.73-7.33-7.48l-9.5-9.68c-3.28-3.36-6.58-6.71-9.86-10.06-2.82-2.88-5.65-5.75-8.46-8.63l-5.26-5.36c-.3-.3-.6-.6-.89-.91l-.12-.12c-1-1-2-2.08-3-3l-.08-.07c-.44-.44-.89-.86-1.32-1.25-1.48-1.34-2.91-3.63-4.84-3.63-1.51,0-2,1.25-2.16,3.78v50.88a2.58,2.58,0,0,1-2.46,2.67h-.69a2.59,2.59,0,0,1-2.47-2.67V148.17c0-7.65,0-15.5,0-23.35,0-2,0-4.09,0-6.13,0-6.57-.08-10.13,2.27-12.65a5.81,5.81,0,0,1,4.87-1.89,5.57,5.57,0,0,1,3.09,1.1c2.24,1.52,4.15,3.9,6,5.83l26.59,27.13,15.85,16.18,3,3,.67.68A5.55,5.55,0,0,0,695.7,160c.79,0,1.33-.58,1.51-1.7Z"/><path class="cls-2" d="M783.79,164.19c0,.12,0,.24,0,.36a4.61,4.61,0,0,1-.17,1.1,2.48,2.48,0,0,1-2.3,1.7H730.39c-3.27,0-5.9.24-8.67-1.74-3.89-2.77-6.62-7.68-8.73-16.29-3.73-15.13-.68-32.86,7.09-41.23a10.23,10.23,0,0,1,7.26-3.67c1.17,0,2.34,0,3.51,0h50.46a2.48,2.48,0,0,1,2.18,1.42,4.9,4.9,0,0,1,.29,1.78,4,4,0,0,1,0,.55c0,.08,0,.16,0,.22s0,0,0,.07a2.52,2.52,0,0,1-2.4,2h-38c-4.14,0-8.42-.32-12.55,0-5,.41-8.77,3.86-10.9,8.23-2.91,6-3.51,13.09-3.26,19.65.19,5.24,1,10.63,3.41,15.34a16.48,16.48,0,0,0,4.72,5.93c2.15,1.48,4.79,1.54,7.3,1.58q10.78.15,21.55.16c5.24,0,10.47,0,15.71-.06,2.44,0,4.89-.08,7.33-.2,2.23-.09,7.12-.77,7.12,2.72,0,.12,0,.23,0,.34"/><path class="cls-2" d="M552.82,104.85q0,7.22,0,14.42t0,14.46Z"/><path class="cls-2" d="M612.14,103.27h.33a4,4,0,0,1,1,.17,2.69,2.69,0,0,1,1.57,2.48v49.28a16.59,16.59,0,0,1-1.61,3.46c-2.58,4.19-7.13,7.13-15.13,9.41-14,4-35.23.72-43-7.65a12.07,12.07,0,0,1-1.3-1.63,13.38,13.38,0,0,1-2.1-4.62V105.93a2.71,2.71,0,0,1,1.29-2.33l0,0a4.05,4.05,0,0,1,1.65-.3,3.57,3.57,0,0,1,.52,0l.19,0h.06a2.63,2.63,0,0,1,1.9,2.58v27.8c0,4.82,0,9.65,0,14.5a4.18,4.18,0,0,0,0,.5c.16,5.12,2.92,10.86,12.58,13.89,9,2.78,29,2.24,35.79-4.77,3.86-4,3.42-6,3.46-10.18,0-2,0-3.91.07-5.83.08-8.36.08-16.31.08-22.62V105.76c0-4.5,0,7.56,0,3.07v-1.54c0-.25,0-.46,0-.69a6.27,6.27,0,0,1,.07-.88,4.44,4.44,0,0,1,.44-1.4,2.4,2.4,0,0,1,1.38-1l.17,0a1,1,0,0,1,.3,0h.32"/><path class="cls-2" d="M873.47,105.69V166.1a2.57,2.57,0,0,1-2.48,2.66h-.68a2.57,2.57,0,0,1-2.47-2.66V138.32H803.78V166.1a2.57,2.57,0,0,1-2.47,2.66h-.68a2.57,2.57,0,0,1-2.48-2.66V105.69a2.57,2.57,0,0,1,2.48-2.66h.68a2.57,2.57,0,0,1,2.47,2.66v26.57h64.06V105.69a2.57,2.57,0,0,1,2.47-2.66H871a2.57,2.57,0,0,1,2.48,2.66"/><path class="cls-2" d="M90.46,127.85l-1.55.61v-.61Z"/><path class="cls-2" d="M249.94,127.91c-1.36,7-7.53,13.47-13.78,13.9-5.65.38-11.34.23-17,.23-15.05,0-30.1,0-45.15,0-4.81,0-6.15,1.63-6.31,7.62-.08,3.53.09,7.07-.05,10.61-.18,4.58-2.55,7.63-5.67,7.58s-5.34-3.22-5.4-7.81c-.07-4.15,0-8.31,0-12.46.07-5.83,1.39-10.53,3.82-13.87,2.73-3.79,6.85-5.84,12.15-5.86q19,0,37.92,0H231a34.37,34.37,0,0,0,4.06-.16c2.48-.3,4.37-1.82,4.31-5.13s-2-4.71-4.47-5a39.43,39.43,0,0,0-4.07-.12h-65.5c-.73,0-1.48,0-2.22,0-4.1-.23-6.65-3.15-6.54-7.47a7.85,7.85,0,0,1,.79-3.36,6.22,6.22,0,0,1,5.85-3.36H168c10.26,0,20.51,0,30.77,0l11.69,0c7.94-.06,15.89-.09,23.83.09,11.09.24,18.19,11.61,15.66,24.57"/><path class="cls-2" d="M380.08,154.87c-.18,7.37-6.29,15.57-14.42,12.36-4.38-1.74-8.54-5.37-12.28-8.2-4.35-3.29-8.58-6.74-12.92-10.06C329,140.4,318,131.24,306.37,122.88c-1.45-1-3.57-2.94-5.47-2.94-1.27,0-2.09,1.08-2.26,3.35v.18q-.22,11.09-.41,22.19L298,158.77c0,5.81-2,9-5.5,9.11h-.13c-3.38,0-5.46-3.38-5.47-9q0-13.36,0-26.74c0-4.45,0-8.91,0-13.36a20,20,0,0,1,2-9.44,12.31,12.31,0,0,1,3.39-3.93,10,10,0,0,1,6-2.2,12.08,12.08,0,0,1,7.22,2.83q23.85,18.33,47.82,36.5c3.46,2.63,6.93,5.25,10.5,7.64a5.13,5.13,0,0,0,2.57,1c1.31,0,2-1.33,2.09-4.12.38-10.44.42-20.89.58-31.34,0-1.85-.05-3.71.05-5.55.22-4.33,2.34-7,5.45-7h.16c2.88.07,5.39,2.94,5.42,6.81.09,14.91.27,29.83-.08,44.75"/><path class="cls-2" d="M274.34,133.83c.07,7.92,0,15.83,0,23.74,0,2.41,0,4.93-1.12,7.08s-3.58,3.81-5.89,3.1a5.2,5.2,0,0,1-3.08-3.06,13.77,13.77,0,0,1-.83-4.37c-.23-3.44-.24-6.9-.26-10.34-.06-12.4-.13-24.81.09-37.22a15.66,15.66,0,0,1,.89-6,5.42,5.42,0,0,1,4.55-3.51c2.1,0,3.94,1.63,4.76,3.56a16.12,16.12,0,0,1,.85,6.22c0,6.92,0,13.86,0,20.78"/><path class="cls-2" d="M144.66,147.45c.2,11.35-6.62,20.31-15.88,20.4-17.72.21-35.43.06-53.15.06q-8.58,0-17.17,0c-5.2,0-7.82-2.43-7.82-7.18,0-4.29,2.91-7,7.72-7h68.48c4.68-.06,6.48-1.69,6.51-5.86,0-3.78-2.25-5.8-6.59-5.8-17.63,0-35.26-.13-52.89.14-5.29.08-10.93.77-16-1.16-4.19-1.58-7.42-5-9.44-10.71-4.55-12.71,2.74-26.74,14.08-27,17.72-.39,35.44-.06,53.17-.07h18.64c2.95,0,5.32,1,6.29,5a9.78,9.78,0,0,1,.27,1.65,8.47,8.47,0,0,1-.08,2.32,5.66,5.66,0,0,1-3.8,4.66,15.24,15.24,0,0,1-4.76.57l-43.34,0c-9,0-18-.65-27,.38-2.36.27-3.56,2-3.53,4.91s1.33,4.54,3.67,4.75c8.87.83,17.93.35,26.83.35h14.74q11.79,0,23.56,0A16.23,16.23,0,0,1,140,133.74a21.76,21.76,0,0,1,4.66,13.71"/><line class="cls-3" x1="208.49" y1="79.43" x2="282.74" y2="60.94"/><path class="cls-4" d="M340.33,112.22c-1.41.7-2.47.75-2.91,0-.28-.44-.22-1.08.81-2,8.36-7.23,19.82-18,17.33-28.57-5-21.3-91.53-14.71-165.28,4.2A2.29,2.29,0,0,1,190,86c-7.4,1.9-14.79,3.92-22.11,6.07l-19.77,6c-.36.09-1,.17-1.07-.16s.18-.61.76-.8c11.39-3.61,23-7.77,46.87-14.42q16.81-4.68,32.77-8.58C252.06,68,274.9,63.36,295.11,60.26c52.62-8.12,87.44-5.85,89.14,9.2,1.65,14.51-29.58,35.91-43.92,42.76"/><path class="cls-1" d="M43.89,148.62c1.41-.7,2.47-.75,2.91-.06.28.45.23,1.09-.81,2-8.34,7.25-19.78,18.06-17.26,28.61,5.06,21.29,91.56,14.49,165.27-4.58a2.29,2.29,0,0,1,.28-.08c7.4-1.92,14.78-4,22.09-6.13l19.76-6c.36-.1,1-.18,1.07.16s-.18.61-.76.79c-11.38,3.65-23,7.83-46.83,14.53-11.2,3.15-22.14,6-32.75,8.66-24.6,6.12-47.42,10.82-67.63,14-52.6,8.24-87.42,6.05-89.16-9-1.68-14.51,29.5-36,43.82-42.87"/></g></g></svg>